<svg xmlns="http://www.w3.org/2000/svg" width="512" height="512" viewBox="0 0 512 512">
  <defs>
    <linearGradient id="bg" x1="0" y1="0" x2="1" y2="1">
      <stop offset="0%" stop-color="#18181b"/>
      <stop offset="100%" stop-color="#09090b"/>
    </linearGradient>
    <linearGradient id="heart1" x1="0" y1="0" x2="1" y2="1">
      <stop offset="0%" stop-color="#fb7185"/>
      <stop offset="100%" stop-color="#e11d48"/>
    </linearGradient>
    <linearGradient id="heart2" x1="0" y1="0" x2="1" y2="1">
      <stop offset="0%" stop-color="#fda4af"/>
      <stop offset="100%" stop-color="#f43f5e"/>
    </linearGradient>
  </defs>
  <!-- Rounded background -->
  <rect width="512" height="512" rx="108" ry="108" fill="url(#bg)"/>
  <!-- Heart 1 (left, slightly behind) -->
  <g transform="translate(230, 260) scale(0.52)" opacity="0.85">
    <path d="M0-200 C-70-200 -200-160 -200-40 C-200 80 0 200 0 200 C0 200 200 80 200-40 C200-160 70-200 0-200Z" 
          fill="url(#heart2)" transform="rotate(-12)"/>
  </g>
  <!-- Heart 2 (right, in front) -->
  <g transform="translate(282, 250) scale(0.52)">
    <path d="M0-200 C-70-200 -200-160 -200-40 C-200 80 0 200 0 200 C0 200 200 80 200-40 C200-160 70-200 0-200Z" 
          fill="url(#heart1)" transform="rotate(8)"/>
  </g>
</svg>